<svg width="36" height="36" viewBox="0 0 36 36" fill="none" xmlns="http://www.w3.org/2000/svg">
<path fill-rule="evenodd" clip-rule="evenodd" d="M30.8765 15.4184C30.8765 18.9154 29.6844 22.1341 27.7372 24.7171L34.453 31.4329C35.4464 32.4263 35.4464 34.0158 34.453 35.0093C33.9761 35.5259 33.3006 35.7643 32.6647 35.7643C32.0289 35.7643 31.3534 35.4862 30.8765 35.0093L24.121 28.2538L24.0416 28.1743C21.5778 29.8433 18.5974 30.8368 15.4184 30.8368C6.91444 30.8368 0 23.9224 0 15.4184C0 6.91444 6.91444 0 15.4184 0C23.9224 0 30.8765 6.91444 30.8765 15.4184ZM15.4121 29.8228C23.3938 29.8228 29.8642 23.3688 29.8642 15.4074C29.8642 7.44592 23.3938 0.991902 15.4121 0.991902C7.43042 0.991902 0.959997 7.44592 0.959997 15.4074C0.959997 23.3688 7.43042 29.8228 15.4121 29.8228Z" fill="#1E2537"/>
<path fill-rule="evenodd" clip-rule="evenodd" d="M23.2182 9.88546C24.1713 9.88546 24.9439 9.11282 24.9439 8.15972C24.9229 7.22167 24.1565 6.47218 23.2182 6.47218C22.2799 6.47218 21.5135 7.22167 21.4924 8.15972C21.4924 9.11282 22.2651 9.88546 23.2182 9.88546ZM21.4319 7.80549L17.0544 6.77533L17.0544 6.77523L21.4319 7.80549ZM17.054 6.77523L17.0544 6.77533L15.3542 11.9637L17.054 6.77523ZM18.7884 21.4791C17.9238 22.3428 16.5315 22.5093 15.3624 22.5093C14.1946 22.5093 12.801 22.3428 11.9377 21.4791H18.7884ZM5.53042 17.4939C4.73468 17.1446 4.2209 16.3577 4.22119 15.4887C4.22063 14.5686 4.79569 13.7463 5.6602 13.4312C6.52471 13.1161 7.49401 13.3753 8.08573 14.08L5.53042 17.4939ZM25.0386 13.423C24.1606 13.116 23.1844 13.3973 22.6044 14.1246L25.1079 17.5302C25.95 17.203 26.5048 16.3922 26.5049 15.4887C26.5046 14.5585 25.9166 13.7301 25.0386 13.423Z" fill="white"/>
<path fill-rule="evenodd" clip-rule="evenodd" d="M4.96848 18.4999C4.96848 22.3065 9.60982 25.4033 15.3151 25.4033C21.0205 25.4033 25.6622 22.3065 25.6631 18.4999C25.6631 18.2542 25.6436 18.012 25.606 17.7728C26.4323 17.3105 26.9425 16.436 26.9382 15.4892C26.9365 14.042 25.7638 12.8693 24.3167 12.8677C23.658 12.8663 23.0232 13.1143 22.5399 13.5619C20.8098 12.4352 18.4924 11.7081 15.9263 11.6082L17.3419 7.28734L21.0598 8.16275C21.0625 9.35322 22.0276 10.3172 23.2181 10.3184C24.4095 10.317 25.3749 9.35154 25.3763 8.16016C25.3752 6.96861 24.4096 6.0029 23.2181 6.00146C22.353 6.00252 21.5718 6.51903 21.232 7.31459L17.1572 6.35526L17.1481 6.3531L16.7667 6.26314L15.0184 11.5987C12.3554 11.6488 9.94156 12.3737 8.14704 13.5255C7.67084 13.1034 7.05537 12.8672 6.40963 12.8672C4.96268 12.8691 3.79024 14.0418 3.78857 15.4887C3.78862 16.3983 4.25983 17.243 5.03379 17.7209C4.99054 17.9766 4.96848 18.2369 4.96848 18.4999ZM5.83351 18.4999C5.83352 18.2248 5.86251 17.9506 5.92002 17.6816C5.92185 17.6785 5.92326 17.6752 5.92469 17.6719L5.9265 17.6677C5.94957 17.6154 5.96192 17.5589 5.96284 17.5017C6.26343 16.3555 7.07311 15.317 8.23787 14.4853C8.30459 14.4597 8.3641 14.4183 8.41131 14.3646C10.1418 13.1934 12.5968 12.4611 15.3151 12.4611C18.0612 12.4611 20.5373 13.2081 22.2704 14.3996C22.3193 14.4594 22.3834 14.5048 22.456 14.5311C23.5961 15.3624 24.3855 16.394 24.6748 17.5302C24.6748 17.5953 24.6894 17.6596 24.7176 17.7183C24.77 17.9744 24.7968 18.2352 24.7968 18.4999C24.7968 21.8294 20.5434 24.5383 15.3151 24.5383C10.0869 24.5383 5.83351 21.8298 5.83351 18.4999ZM23.2626 14.0835C24.2656 14.8858 25.0018 15.8412 25.3781 16.8896C25.8175 16.5583 26.0748 16.0391 26.0723 15.4887C26.0713 14.5191 25.2855 13.7332 24.3158 13.7323C23.9359 13.7317 23.5662 13.855 23.2626 14.0835ZM4.65361 15.4887C4.65456 14.5192 5.44013 13.7335 6.40963 13.7323C6.76869 13.7322 7.11916 13.8421 7.41393 14.0471C6.40703 14.8417 5.66353 15.7893 5.2747 16.8295C4.88717 16.5008 4.65361 16.0134 4.65361 15.4887ZM23.2177 6.86607C22.5049 6.86607 21.9244 7.4465 21.9244 8.15972C21.9244 8.87294 22.5049 9.45295 23.2177 9.45295C23.9304 9.45295 24.5109 8.87294 24.5109 8.15972C24.5109 7.4465 23.9309 6.86607 23.2177 6.86607ZM11.6314 21.7844C12.4095 22.563 13.6301 22.9414 15.3623 22.9414C17.0945 22.9414 18.3146 22.563 19.0936 21.7844C19.2029 21.6753 19.2456 21.5161 19.2056 21.3669C19.1657 21.2177 19.0492 21.1011 18.9001 21.0611C18.7509 21.0211 18.5917 21.0637 18.4825 21.1729C17.8739 21.7805 16.8532 22.0764 15.3623 22.0764C13.871 22.0764 12.8511 21.7805 12.2434 21.1729C12.0745 21.0039 11.8006 21.0038 11.6316 21.1726C11.4626 21.3415 11.4625 21.6154 11.6314 21.7844Z" fill="#1E2537"/>
<path fill-rule="evenodd" clip-rule="evenodd" d="M10.2612 17.2426C10.2612 16.362 11.0004 15.6228 11.881 15.6228C12.7616 15.6228 13.4761 16.362 13.4761 17.2426C13.4761 18.1232 12.762 18.8377 11.881 18.8377C11 18.8377 10.2612 18.1232 10.2612 17.2426ZM17.2481 17.2426C17.2481 16.3611 17.9881 15.6228 18.8696 15.6228C19.7506 15.6228 20.4647 16.3611 20.4647 17.2426C20.4647 18.1236 19.7511 18.8377 18.8696 18.8377C17.9881 18.8377 17.2481 18.1236 17.2481 17.2426Z" fill="#FF4500"/>
</svg>
